<svg id="Layer_1" data-name="Layer 1" xmlns="http://www.w3.org/2000/svg" viewBox="0 0 64 64"><defs><style>.cls-1{fill:#34cb79;}.cls-2{fill:#322153;}</style></defs><rect class="cls-1" x="2.08" y="12.51" width="17.94" height="16.09"/><g id="Motorbike"><path class="cls-2" d="M50.93,32.79h-.32L47.47,21.06h2.17a1,1,0,0,0,1-1h0V13.91a1,1,0,0,0-1-1H41.75A4.07,4.07,0,0,0,37.82,16H33.68a1,1,0,0,0,0,2h4.14a4.07,4.07,0,0,0,3,2.95V43.35H31.69V32.75a5.27,5.27,0,0,0-5.27-5.26H21.1V12.62a1,1,0,0,0-1-1H2.51a1,1,0,0,0-1,1h0V28.47a1,1,0,0,0,1,1h9.73a16.88,16.88,0,0,0-9,14.89,1,1,0,0,0,1,1H9.52a8,8,0,0,0,15.92,0H43a8,8,0,0,0,15.92,0h2.6a1,1,0,0,0,1-1h0A11.54,11.54,0,0,0,50.93,32.79Zm-2,1.23a7.41,7.41,0,0,1-5.25,9.08,7,7,0,0,1-.93.19V21.06h2.7ZM39.65,17a2.1,2.1,0,0,1,2.1-2.1h6.91v4.19H41.75A2.1,2.1,0,0,1,39.65,17ZM19.14,13.6V16H3.49V13.6ZM3.49,18H19.14v9.48H3.49ZM20.12,29.45h6.3a3.3,3.3,0,0,1,3.3,3.3v10.6H5.28A14.89,14.89,0,0,1,20.12,29.45Zm-2.64,21a6.08,6.08,0,0,1-6-5.08h12A6.07,6.07,0,0,1,17.48,50.4Zm33.45,0a6.08,6.08,0,0,1-6-5.08H56.9a6.07,6.07,0,0,1-6,5.08Zm-3.45-7a9.49,9.49,0,0,0,1.71-1.7A9.27,9.27,0,0,0,51,34.76a9.59,9.59,0,0,1,9.42,8.59Z"/></g></svg>